<svg id="Layer_1" xmlns="http://www.w3.org/2000/svg" width="500" height="500" viewBox="0 0 500 500"><style>.st0{fill:#41D6C3;} .st1{fill:#FFFFFF;} .st2{fill:#323232;} .st3{fill:#C7C7C7;} .st4{fill:#ECECEC;} .st5{fill:#CECECE;} .st6{opacity:0.1;fill:#464646;enable-background:new ;}</style><path class="st0" d="M84.2 337.5V159.1c0-11 9-20 20-20h293.5c11 0 21 9 21 20v165.4l-37 37H104.2c-14.7 0-20-13-20-24z"/><path class="st1" d="M257.2 352.5V140.1H389c11 0 20 9 20 20v158.5l-33.9 33.9H257.2z"/><path class="st2" d="M263.1 354.5V138.1H389c12.1 0 22 9.9 22 22v159.4l-35 35.1-112.9-.1zm4-212.4v208.4h107.2l32.8-32.7V160.1c0-9.9-8.1-18-18-18h-122z"/><path class="st3" d="M368.6 327.6v11.5H245.1v-11.5h123.5z"/><path class="st3" d="M368.6 327.6v11.5H257.2v-11.5h111.4z"/><path class="st4" d="M305.2 156.6v19.5h-5v-19.5h5zm-20 0v19.5h-5v-19.5h5zm70 0v19.5h-5v-19.5h5zm-10 0v19.5h-5v-19.5h5zm-40 80v19.5h-5v-19.5h5zm-10 0v19.5h-5v-19.5h5zm-10 0v19.5h-5v-19.5h5zm80 0v19.5h-5v-19.5h5zm-20 0v19.5h-5v-19.5h5zm-50-40v19.5h-5v-19.5h5zm20 0v19.5h-5v-19.5h5zm30 0v19.5h-5v-19.5h5zm-10 0v19.5h-5v-19.5h5zm-50 80v19.5h-5v-19.5h5zm60 0v19.5h-5v-19.5h5zm-20 0v19.5h-5v-19.5h5zm-30-120v19.5h-5v-19.5h5zm20 0v19.5h-5v-19.5h5zm50 0v19.5h-5v-19.5h5zm-40 0v19.5h-5v-19.5h5zm10 0v19.5h-5v-19.5h5zm-20 80v19.5h-5v-19.5h5zm40 0v19.5h-5v-19.5h5zm-30 0v19.5h-5v-19.5h5zm10 0v19.5h-5v-19.5h5zm-30-40v19.5h-5v-19.5h5zm-20 0v19.5h-5v-19.5h5zm70 0v19.5h-5v-19.5h5zm10 0v19.5h-5v-19.5h5zm-40 0v19.5h-5v-19.5h5zm-20 80v19.5h-5v-19.5h5zm-10 0v19.5h-5v-19.5h5zm20 0v19.5h-5v-19.5h5zm40 0v19.5h-5v-19.5h5zm10 0v19.5h-5v-19.5h5zm-30 0v19.5h-5v-19.5h5z"/><path class="st4" d="M262.2 140.4v-25.2c0-11 9-20 20-20h49c11 0 20 9 20 20v269.6c0 11-9 20-20 20h-49c-11 0-20-9-20-20v-26.4"/><path class="st2" d="M260.2 384.8v-26.4h4v26.4c0 9.9 8.1 18 18 18h49c9.9 0 18-8.1 18-18V115.2c0-9.9-8.1-18-18-18h-49c-9.9 0-18 8.1-18 18v25.2h-4v-25.2c0-12.1 9.9-22 22-22h49c12.1 0 22 9.9 22 22v269.6c0 12.1-9.9 22-22 22h-49c-12.1 0-22-9.9-22-22z"/><path class="st5" d="M265.1 135.1v-16h43c6.6 0 12 5.4 12 12v237c0 6.6-5.4 12-12 12h-43v-22"/><path class="st1" d="M308.2 140.1v212.4h-205c-11 0-20-9-20-20V160.1c0-11 9-20 20-20h205z"/><path class="st2" d="M81.2 332.5V160.1c0-12.1 9.9-22 22-22h207v216.4h-207c-12.2 0-22-9.9-22-22zm22-190.4c-9.9 0-18 8.1-18 18v172.4c0 9.9 8.1 18 18 18h203V142.1h-203z"/><path class="st3" d="M307.2 327.6v11.5h-213v-11.5h213z"/><path class="st4" d="M203.9 156.6h5v19.5h-5zM183.9 156.6h5v19.5h-5z"/><path class="st2" d="M253.9 156.6h5v19.5h-5zM243.9 156.6h5v19.5h-5z"/><path class="st4" d="M203.9 236.6h5v19.5h-5zM193.9 236.6h5v19.5h-5zM183.9 236.6h5v19.5h-5zM263.9 236.6h5v19.5h-5zM243.9 236.6h5v19.5h-5zM193.9 196.6h5v19.5h-5zM213.9 196.6h5v19.5h-5z"/><path class="st2" d="M243.9 196.6h5v19.5h-5z"/><path class="st4" d="M233.9 196.6h5v19.5h-5zM183.9 276.6h5v19.5h-5zM243.9 276.6h5v19.5h-5zM223.9 276.6h5v19.5h-5z"/><path class="st2" d="M104.2 156.6h5v19.5h-5z"/><path class="st4" d="M124.2 156.6h5v19.5h-5zM174.2 156.6h5v19.5h-5z"/><path class="st2" d="M134.2 156.6h5v19.5h-5zM144.2 156.6h5v19.5h-5z"/><path class="st4" d="M124.2 236.6h5v19.5h-5z"/><path class="st2" d="M164.2 236.6h5v19.5h-5zM134.2 236.6h5v19.5h-5zM144.2 236.6h5v19.5h-5zM114.2 196.6h5v19.5h-5zM94.2 196.6h5v19.5h-5zM164.2 196.6h5v19.5h-5zM174.2 196.6h5v19.5h-5zM134.2 196.6h5v19.5h-5z"/><path class="st4" d="M114.2 276.6h5v19.5h-5zM104.2 276.6h5v19.5h-5zM124.2 276.6h5v19.5h-5zM164.2 276.6h5v19.5h-5zM174.2 276.6h5v19.5h-5z"/><path class="st2" d="M144.2 276.6h5v19.5h-5z"/><path class="st4" d="M114.2 156.6h5v19.5h-5z"/><path class="st2" d="M94.2 156.6h5v19.5h-5z"/><path class="st4" d="M164.2 156.6h5v19.5h-5zM154.2 156.6h5v19.5h-5zM114.2 236.6h5v19.5h-5zM104.2 236.6h5v19.5h-5zM94.2 236.6h5v19.5h-5z"/><path class="st2" d="M174.2 236.6h5v19.5h-5z"/><path class="st4" d="M154.2 236.6h5v19.5h-5z"/><path class="st2" d="M104.2 196.6h5v19.5h-5zM124.2 196.6h5v19.5h-5z"/><path class="st4" d="M154.2 196.6h5v19.5h-5z"/><path class="st2" d="M144.2 196.6h5v19.5h-5z"/><path class="st4" d="M94.2 276.6h5v19.5h-5zM154.2 276.6h5v19.5h-5z"/><path class="st2" d="M134.2 276.6h5v19.5h-5zM203.9 156.6h5v19.5h-5zM183.9 156.6h5v19.5h-5z"/><path class="st4" d="M293.8 156.6h5v19.5h-5zM283.8 156.6h5v19.5h-5zM203.9 236.6h5v19.5h-5zM193.9 236.6h5v19.5h-5zM183.9 236.6h5v19.5h-5zM303.8 236.6h5v19.5h-5zM283.8 236.6h5v19.5h-5zM193.9 196.6h5v19.5h-5z"/><path class="st2" d="M213.9 196.6h5v19.5h-5z"/><path class="st4" d="M283.8 196.6h5v19.5h-5zM273.8 196.6h5v19.5h-5z"/><path class="st2" d="M183.9 276.6h5v19.5h-5z"/><path class="st4" d="M283.8 276.6h5v19.5h-5zM223.9 276.6h5v19.5h-5z"/><path class="st2" d="M193.9 156.6h5v19.5h-5z"/><path class="st4" d="M213.9 156.6h5v19.5h-5zM263.9 156.6h5v19.5h-5zM223.9 156.6h5v19.5h-5zM233.9 156.6h5v19.5h-5z"/><path class="st2" d="M213.9 236.6h5v19.5h-5z"/><path class="st4" d="M253.9 236.6h5v19.5h-5z"/><path class="st2" d="M223.9 236.6h5v19.5h-5z"/><path class="st4" d="M233.9 236.6h5v19.5h-5zM203.9 196.6h5v19.5h-5zM183.9 196.6h5v19.5h-5z"/><path class="st2" d="M253.9 196.6h5v19.5h-5zM263.9 196.6h5v19.5h-5zM223.9 196.6h5v19.5h-5zM203.9 276.6h5v19.5h-5zM193.9 276.6h5v19.5h-5z"/><path class="st4" d="M213.9 276.6h5v19.5h-5zM253.9 276.6h5v19.5h-5zM263.9 276.6h5v19.5h-5zM233.9 276.6h5v19.5h-5z"/><path class="st2" d="M293.8 156.6h5v19.5h-5zM283.8 156.6h5v19.5h-5z"/><path class="st4" d="M303.8 236.6h5v19.5h-5z"/><path class="st2" d="M283.8 236.6h5v19.5h-5zM283.8 196.6h5v19.5h-5zM273.8 196.6h5v19.5h-5zM283.8 276.6h5v19.5h-5z"/><path class="st4" d="M303.8 156.6h5v19.5h-5zM273.8 156.6h5v19.5h-5z"/><path class="st2" d="M293.8 236.6h5v19.5h-5z"/><path class="st4" d="M273.8 236.6h5v19.5h-5z"/><path class="st2" d="M293.8 196.6h5v19.5h-5z"/><path class="st4" d="M303.8 196.6h5v19.5h-5z"/><path class="st2" d="M293.8 276.6h5v19.5h-5z"/><path class="st4" d="M303.8 276.6h5v19.5h-5zM273.8 276.6h5v19.5h-5z"/><path class="st0" d="M307.2 354.5v7h-62.8v-7h62.8z"/><path class="st1" d="M308.2 133.6v230"/><path class="st2" d="M306.2 363.6v-230c0-1.4 1.1-2.5 2.5-2.5s2.5 1.1 2.5 2.5v230c0 1.4-1.1 2.5-2.5 2.5s-2.5-1.1-2.5-2.5z"/><path class="st6" d="M262.6 138.8l44.1 211.7V138.6l-44.1.2z"/></svg>