<svg xmlns="http://www.w3.org/2000/svg" viewBox="0 0 148 18"><style>.st0{fill:#FFFFFF;}</style><g id="Layer_1"><path class="st0" d="M9.1 5.4c.9 0 1.9.1 2.7.6.8.6 1.2 1.6 1.2 2.6 0 .9-.3 1.7-.9 2.3-.7.7-1.5.9-2.5.9H8.2v1.8h1.1v1.6h-4v-1.6h1.1V6.9H5.2V5.4h3.9zm.2 4.7c.5 0 .9 0 1.3-.3s.5-.7.5-1.2-.2-.9-.6-1.2c-.4-.3-.8-.3-1.3-.3h-1v3h1.1zM27.6 5.4V7h-1.1v4.9c0 1-.2 1.8-.9 2.6-.7.7-1.6 1-2.6 1-.9 0-1.8-.2-2.5-.9-.8-.8-1-1.7-1-2.7v-5h-1.1V5.4h3.8V7h-.9v4.6c0 .5 0 1 .3 1.4.3.5.8.7 1.3.7s.9-.2 1.3-.6c.3-.4.4-1 .4-1.5V6.9h-.9V5.4h3.9zM42.5 15.2h-1.7l-4.6-6.5v4.9h1.1v1.6h-4v-1.6h1.1V6.9h-1.1V5.4H36l4.7 6.6V7h-1.1V5.4h4V7h-1.1v8.2zM56.6 8.5C56 7.5 54.9 7 53.9 7c-1.9 0-3.2 1.4-3.2 3.2 0 1.8 1.4 3.2 3.2 3.2 1.1 0 2.2-.5 2.8-1.5h2c-.6 2-2.7 3.4-4.8 3.4-1.3 0-2.7-.6-3.6-1.5-1-1-1.5-2.3-1.5-3.7 0-2.8 2.2-5.1 5-5.1 1.1 0 2.2.4 3 1.2v-1h1.5v3.1h-1.7zM70.9 6.9h-1.1V5.4h4V7h-1.1v6.7h1.1v1.6h-4v-1.6h1.1v-2.5h-3.8v2.5h1.1v1.6h-4v-1.6h1.1V6.9h-1.1V5.4h4V7h-1.1v2.4h3.8V6.9zM87.8 7.8c-.7-1.1-2.1-1.7-3.4-1.7-2.3 0-4.1 1.8-4.1 4.1s1.8 4.2 4.1 4.2c1.4 0 2.6-.6 3.4-1.8h1.1c-.8 1.7-2.6 2.8-4.5 2.8-1.3 0-2.7-.6-3.6-1.5-1-1-1.5-2.3-1.5-3.7 0-1.4.6-2.7 1.5-3.7.9-.9 2.2-1.4 3.6-1.4 1.3 0 2.5.5 3.4 1.4V5.4h.9v2.4h-.9zM101.7 15.2v-.9h1.3l-1-2.3h-4.6l-1 2.3h1.2v.9h-3.5v-.9h1.2l3.6-8h-1.3v-.9h2.6l3.9 8.9h1.2v.9h-3.6zm-2-8.7l-2 4.7h4l-2-4.7zM119.2 15.2h-1.9l-3-4.2h.4c.7 0 1.5 0 2.1-.4.7-.4 1.1-1.2 1.1-2 0-.7-.2-1.3-.7-1.8-.6-.5-1.2-.6-2-.6h-1.9v8h1.2v.9H111v-.9h1.3v-8H111v-.8h4.3c.9 0 1.7.1 2.5.7.7.6 1.1 1.5 1.1 2.5 0 1.7-1.3 3-3 3l2.1 2.7h1.3v.9zM126.3 6.3H125v-.9h4.4c1.4 0 2.5.3 3.5 1.3 1 .9 1.5 2.3 1.5 3.6 0 1.3-.5 2.5-1.4 3.5-1 1.1-2.1 1.4-3.6 1.4H125v-.9h1.3v-8zm2.9 8c1.2 0 2.2-.2 3-1.1.7-.8 1.2-1.9 1.2-2.9 0-1.1-.4-2.3-1.2-3-.9-.8-1.7-1-2.9-1h-2v8h1.9z"/></g></svg>