<svg id="Layer_1" xmlns="http://www.w3.org/2000/svg" viewBox="0 0 500 500"><style>.st0{fill:#F9F9F9;} .st1{fill:#6EEDD8;} .st2{fill:#323232;} .st3{fill:#41D6C3;} .st4{fill:#FFFFFF;} .st5{fill:#C7C7C7;} .st6{fill:#ECECEC;} .st7{fill:#CECECE;} .st8{opacity:0.1;} .st9{fill:#464646;}</style><path class="st0" d="M329 394.1H186.8c-11 0-20-9-20-20V132.2c0-11 9-20 20-20H317l32 32.3v229.6c0 11-8.9 20-20 20z"/><circle class="st1" cx="250" cy="250.1" r="232.9"/><circle class="st0" cx="250" cy="250.1" r="213.5"/><path class="st2" d="M250 465.6c-57.6 0-111.7-22.4-152.4-63.1s-63.1-94.8-63.1-152.4S56.9 138.4 97.6 97.7 192.4 34.6 250 34.6 361.7 57 402.4 97.7s63.1 94.8 63.1 152.4-22.4 111.7-63.1 152.4-94.8 63.1-152.4 63.1zm0-427c-116.6 0-211.5 94.9-211.5 211.5S133.4 461.6 250 461.6s211.5-94.9 211.5-211.5S366.6 38.6 250 38.6z"/><path class="st3" d="M337.9 399.1H159.5c-11 0-20-9-20-20v-258c0-11 9-21 20-21h165.4l37 37v242c0 14.7-13 20-24 20z"/><path class="st4" d="M352.9 260H140.5V128.2c0-11 9-20 20-20H319l33.9 33.9V260z"/><path class="st2" d="M354.9 262H138.5V128.2c0-12.1 9.9-22 22-22h159.4l35.1 35.1V262zm-212.4-4h208.4V142.9l-32.7-32.8H160.5c-9.9 0-18 8.1-18 18V258z"/><path class="st5" d="M328 148.6h11.5v123.5H328z"/><path class="st5" d="M328 148.6h11.5V260H328z"/><path class="st6" d="M157 212h19.5v5H157zM157 232h19.5v5H157zM157 162h19.5v5H157zM157 172h19.5v5H157zM237 212h19.5v5H237zM237 222h19.5v5H237zM237 232h19.5v5H237zM237 152h19.5v5H237zM237 172h19.5v5H237zM197 222h19.5v5H197zM197 202h19.5v5H197zM197 172h19.5v5H197zM197 182h19.5v5H197zM277 232h19.5v5H277zM277 172h19.5v5H277zM277 192h19.5v5H277z"/><g><path class="st6" d="M157 222h19.5v5H157zM157 202h19.5v5H157zM157 152h19.5v5H157zM157 192h19.5v5H157zM157 182h19.5v5H157zM237 202h19.5v5H237zM237 162h19.5v5H237zM237 192h19.5v5H237zM237 182h19.5v5H237zM197 212h19.5v5H197zM197 232h19.5v5H197zM197 162h19.5v5H197zM197 152h19.5v5H197zM197 192h19.5v5H197zM277 212h19.5v5H277zM277 222h19.5v5H277zM277 202h19.5v5H277zM277 162h19.5v5H277zM277 152h19.5v5H277zM277 182h19.5v5H277z"/></g><g><path class="st1" d="M193 230.7l-39.9-39.8 7.1-7.1 32.8 32.8 32.8-32.8 7.1 7.1z"/><path class="st1" d="M193 200.7l-39.9-39.8 7.1-7.1 32.8 32.8 32.8-32.8 7.1 7.1z"/><path class="st1" d="M193 170.7l-39.9-39.8 7.1-7.1 32.8 32.8 32.8-32.8 7.1 7.1z"/></g><g><path class="st6" d="M140.8 339h-25.2c-11 0-20-9-20-20v-49c0-11 9-20 20-20h269.6c11 0 20 9 20 20v49c0 11-9 20-20 20h-26.4"/><path class="st2" d="M385.2 341h-26.4v-4h26.4c9.9 0 18-8.1 18-18v-49c0-9.9-8.1-18-18-18H115.6c-9.9 0-18 8.1-18 18v49c0 9.9 8.1 18 18 18h25.2v4h-25.2c-12.1 0-22-9.9-22-22v-49c0-12.1 9.9-22 22-22h269.6c12.1 0 22 9.9 22 22v49c0 12.1-9.9 22-22 22z"/></g><g><path class="st7" d="M135.5 336.1h-16v-43c0-6.6 5.4-12 12-12h237c6.6 0 12 5.4 12 12v43h-22"/></g><g><path class="st4" d="M140.5 292.8h212.4V378c0 11-9 20-20 20H160.5c-11 0-20-9-20-20v-85.2z"/><path class="st2" d="M332.9 400H160.5c-12.1 0-22-9.9-22-22v-87.3h216.4V378c0 12.2-9.9 22-22 22zM142.5 294.8V378c0 9.9 8.1 18 18 18h172.4c9.9 0 18-8.1 18-18v-83.3H142.5z"/></g><g><path class="st5" d="M328 293h11.5v94H328z"/></g><g><path class="st2" d="M157 372h19.5v5H157zM157 352h19.5v5H157zM157 302h19.5v5H157zM157 342h19.5v5H157zM157 332h19.5v5H157zM237 352h19.5v5H237zM237 312h19.5v5H237zM237 342h19.5v5H237zM237 332h19.5v5H237zM197 362h19.5v5H197zM197 382h19.5v5H197zM197 312h19.5v5H197zM197 302h19.5v5H197zM197 342h19.5v5H197zM277 362h19.5v5H277zM277 372h19.5v5H277zM277 352h19.5v5H277zM277 312h19.5v5H277zM277 302h19.5v5H277zM277 332h19.5v5H277z"/></g><g><path class="st6" d="M157 362h19.5v5H157zM157 382h19.5v5H157zM157 312h19.5v5H157zM157 322h19.5v5H157zM237 362h19.5v5H237zM237 372h19.5v5H237zM237 382h19.5v5H237zM237 302h19.5v5H237zM237 322h19.5v5H237zM197 372h19.5v5H197zM197 352h19.5v5H197zM197 322h19.5v5H197zM197 332h19.5v5H197zM277 382h19.5v5H277zM277 322h19.5v5H277zM277 342h19.5v5H277z"/></g><g class="st8"><path class="st9" d="M143.4 294.5l197.1 99.8c5.8 0 10.5-4.7 10.5-10.5v-89.5l-207.6.2z"/></g><g><path class="st3" d="M354.9 294.3h7v62.8h-7z"/></g><g><path class="st4" d="M134 293h230"/><path class="st2" d="M364 295H134c-1.4 0-2.5-1.1-2.5-2.5s1.1-2.5 2.5-2.5h230c1.4 0 2.5 1.1 2.5 2.5s-1.1 2.5-2.5 2.5z"/></g></svg>