<svg id="Layer_1" xmlns="http://www.w3.org/2000/svg" width="129.2" height="10.5" viewBox="0 0 129.2 10.5"><style>.st0{fill:#6EEDD8;} .st1{fill:#FFFFFF;}</style><path id="Layer_1_1_" class="st0" d="M3.9.4c.9 0 1.9.1 2.7.6.8.6 1.2 1.6 1.2 2.6 0 .9-.3 1.7-.9 2.3-.7.7-1.5.9-2.5.9H3v1.8h1.1v1.6h-4V8.6h1.1V1.9H0V.4h3.9zm.2 4.7c.5 0 .9 0 1.3-.3s.5-.7.5-1.2-.2-.9-.6-1.2c-.4-.3-.8-.3-1.3-.3H3v3h1.1zM22.4.4V2h-1.1v4.9c0 1-.2 1.8-.9 2.6-.7.7-1.6 1-2.6 1-.9 0-1.8-.2-2.5-.9-.8-.8-1-1.7-1-2.7v-5h-1.1V.4H17V2h-.9v4.6c0 .5 0 1 .3 1.4.3.5.8.7 1.3.7s.9-.2 1.3-.6c.3-.4.4-1 .4-1.5V1.9h-.9V.4h3.9zm14.9 9.8h-1.7L31 3.7v4.9h1.1v1.6h-4V8.6h1.1V1.9h-1.1V.4h2.7L35.5 7V2h-1.1V.4h4V2h-1.1v8.2zm14.1-6.7c-.6-1-1.7-1.5-2.7-1.5-1.9 0-3.2 1.4-3.2 3.2s1.4 3.2 3.2 3.2c1.1 0 2.2-.5 2.8-1.5h2c-.6 2-2.7 3.4-4.8 3.4-1.3 0-2.7-.6-3.6-1.5-1-1-1.5-2.3-1.5-3.7 0-2.8 2.2-5.1 5-5.1 1.1 0 2.2.4 3 1.2v-1h1.5v3.3h-1.7zm14.3-1.6h-1.1V.4h4V2h-1.1v6.7h1.1v1.6h-4V8.7h1.1V6.2h-3.8v2.5H63v1.6h-4V8.7h1.1V1.9H59V.4h4V2h-1.1v2.4h3.8V1.9z"/><path class="st1" d="M82.6 2.8c-.7-1.1-2.1-1.7-3.4-1.7-2.3 0-4.1 1.8-4.1 4.1s1.8 4.2 4.1 4.2c1.4 0 2.6-.6 3.4-1.8h1.1c-.8 1.7-2.6 2.8-4.5 2.8-1.3 0-2.7-.6-3.6-1.5-1-1-1.5-2.3-1.5-3.7s.6-2.7 1.5-3.7C76.5.6 77.8.1 79.2.1c1.3 0 2.5.5 3.4 1.4V.4h.9v2.4h-.9zM98.9 9.3L95 .4h-2.6v.9h1.3l-3.6 8h-1.2v.9h3.5v-.9h-1.2l1-2.3h4.6l1 2.3h-1.3v.9h3.6v-.9h-1.2zm-6.4-3.1l2-4.7 2 4.7h-4zM114 10.2h-1.9l-3-4.2h.4c.7 0 1.5 0 2.1-.4.7-.4 1.1-1.2 1.1-2 0-.7-.2-1.3-.7-1.8-.6-.5-1.2-.6-2-.6h-1.9v8h1.2v.9h-3.5v-.9h1.3v-8h-1.3V.4h4.3c.9 0 1.7.1 2.5.7.7.6 1.1 1.5 1.1 2.5 0 1.7-1.3 3-3 3l2.1 2.7h1.3l-.1.9zM127.7 1.7c-1-1-2.1-1.3-3.5-1.3h-4.4v.9h1.3v8h-1.3v.9h4.4c1.5 0 2.6-.3 3.6-1.4.9-1 1.4-2.2 1.4-3.5s-.5-2.7-1.5-3.6zm-.7 6.5c-.8.9-1.8 1.1-3 1.1h-1.9v-8h2c1.2 0 2 .2 2.9 1 .8.7 1.2 1.9 1.2 3 0 1-.5 2.1-1.2 2.9z"/></svg>